<?xml version="1.0" encoding="utf-8"?>
<!-- Generator: Adobe Illustrator 21.1.0, SVG Export Plug-In . SVG Version: 6.00 Build 0)  -->
<svg version="1.1" id="Layer_1" xmlns="http://www.w3.org/2000/svg" xmlns:xlink="http://www.w3.org/1999/xlink" x="0px" y="0px"
	 viewBox="0 0 3000 2000" style="enable-background:new 0 0 3000 2000;" xml:space="preserve">
<style type="text/css">
	.st0{fill:#F7F9F9;}
	.st1{fill:#FBFCFC;}
	.st2{fill:#FFFFFF;}
</style>
<polygon class="st0" points="61,207.6 61,307.6 147.6,357.6 234.2,307.6 234.2,207.6 147.6,157.6 "/>
<polygon class="st1" points="254.2,207.6 254.2,307.6 340.8,357.6 427.4,307.6 427.4,207.6 340.8,157.6 "/>
<polygon class="st1" points="447.4,207.6 447.4,307.6 534,357.6 620.6,307.6 620.6,207.6 534,157.6 "/>
<polygon class="st2" points="640.6,207.6 640.6,307.6 727.2,357.6 813.8,307.6 813.8,207.6 727.2,157.6 "/>
<polygon class="st1" points="833.8,207.6 833.8,307.6 920.4,357.6 1007,307.6 1007,207.6 920.4,157.6 "/>
<polygon class="st2" points="1027,207.6 1027,307.6 1113.6,357.6 1200.2,307.6 1200.2,207.6 1113.6,157.6 "/>
<polygon class="st2" points="1220.2,207.6 1220.2,307.6 1306.8,357.6 1393.4,307.6 1393.4,207.6 1306.8,157.6 "/>
<polygon class="st2" points="1413.4,207.6 1413.4,307.6 1500,357.6 1586.6,307.6 1586.6,207.6 1500,157.6 "/>
<polygon class="st1" points="1606.6,207.6 1606.6,307.6 1693.2,357.6 1779.8,307.6 1779.8,207.6 1693.2,157.6 "/>
<polygon class="st0" points="1799.8,207.6 1799.8,307.6 1886.4,357.6 1973,307.6 1973,207.6 1886.4,157.6 "/>
<polygon class="st1" points="1993,207.6 1993,307.6 2079.6,357.6 2166.2,307.6 2166.2,207.6 2079.6,157.6 "/>
<polygon class="st0" points="2186.2,207.6 2186.2,307.6 2272.8,357.6 2359.4,307.6 2359.4,207.6 2272.8,157.6 "/>
<polygon class="st1" points="2379.4,207.6 2379.4,307.6 2466,357.6 2552.6,307.6 2552.6,207.6 2466,157.6 "/>
<polygon class="st0" points="2572.6,207.6 2572.6,307.6 2659.2,357.6 2745.8,307.6 2745.8,207.6 2659.2,157.6 "/>
<polygon class="st1" points="2765.8,207.6 2765.8,307.6 2852.4,357.6 2939,307.6 2939,207.6 2852.4,157.6 "/>
<polygon class="st0" points="157.6,374.9 157.6,474.9 244.2,524.9 330.8,474.9 330.8,374.9 244.2,324.9 "/>
<polygon class="st2" points="350.8,374.9 350.8,474.9 437.4,524.9 524,474.9 524,374.9 437.4,324.9 "/>
<polygon class="st2" points="544,374.9 544,474.9 630.6,524.9 717.2,474.9 717.2,374.9 630.6,324.9 "/>
<polygon class="st1" points="737.2,374.9 737.2,474.9 823.8,524.9 910.4,474.9 910.4,374.9 823.8,324.9 "/>
<polygon class="st2" points="930.4,374.9 930.4,474.9 1017,524.9 1103.6,474.9 1103.6,374.9 1017,324.9 "/>
<polygon class="st0" points="1123.6,374.9 1123.6,474.9 1210.2,524.9 1296.8,474.9 1296.8,374.9 1210.2,324.9 "/>
<polygon class="st1" points="1316.8,374.9 1316.8,474.9 1403.4,524.9 1490,474.9 1490,374.9 1403.4,324.9 "/>
<polygon class="st1" points="1510,374.9 1510,474.9 1596.6,524.9 1683.2,474.9 1683.2,374.9 1596.6,324.9 "/>
<polygon class="st0" points="1703.2,374.9 1703.2,474.9 1789.8,524.9 1876.4,474.9 1876.4,374.9 1789.8,324.9 "/>
<polygon class="st1" points="1896.4,374.9 1896.4,474.9 1983,524.9 2069.6,474.9 2069.6,374.9 1983,324.9 "/>
<polygon class="st1" points="2089.6,374.9 2089.6,474.9 2176.2,524.9 2262.8,474.9 2262.8,374.9 2176.2,324.9 "/>
<polygon class="st2" points="2282.8,374.9 2282.8,474.9 2369.4,524.9 2456,474.9 2456,374.9 2369.4,324.9 "/>
<polygon class="st2" points="2476,374.9 2476,474.9 2562.6,524.9 2649.2,474.9 2649.2,374.9 2562.6,324.9 "/>
<polygon class="st1" points="2669.2,374.9 2669.2,474.9 2755.8,524.9 2842.4,474.9 2842.4,374.9 2755.8,324.9 "/>
<polygon class="st0" points="61,542.2 61,642.2 147.6,692.2 234.2,642.2 234.2,542.2 147.6,492.2 "/>
<polygon class="st1" points="254.2,542.2 254.2,642.2 340.8,692.2 427.4,642.2 427.4,542.2 340.8,492.2 "/>
<polygon class="st0" points="447.4,542.2 447.4,642.2 534,692.2 620.6,642.2 620.6,542.2 534,492.2 "/>
<polygon class="st0" points="640.6,542.2 640.6,642.2 727.2,692.2 813.8,642.2 813.8,542.2 727.2,492.2 "/>
<polygon class="st1" points="833.8,542.2 833.8,642.2 920.4,692.2 1007,642.2 1007,542.2 920.4,492.2 "/>
<polygon class="st1" points="1027,542.2 1027,642.2 1113.6,692.2 1200.2,642.2 1200.2,542.2 1113.6,492.2 "/>
<polygon class="st1" points="1220.2,542.2 1220.2,642.2 1306.8,692.2 1393.4,642.2 1393.4,542.2 1306.8,492.2 "/>
<polygon class="st0" points="1413.4,542.2 1413.4,642.2 1500,692.2 1586.6,642.2 1586.6,542.2 1500,492.2 "/>
<polygon class="st0" points="1606.6,542.2 1606.6,642.2 1693.2,692.2 1779.8,642.2 1779.8,542.2 1693.2,492.2 "/>
<polygon class="st1" points="1799.8,542.2 1799.8,642.2 1886.4,692.2 1973,642.2 1973,542.2 1886.4,492.2 "/>
<polygon class="st2" points="1993,542.2 1993,642.2 2079.6,692.2 2166.2,642.2 2166.2,542.2 2079.6,492.2 "/>
<polygon class="st0" points="2186.2,542.2 2186.2,642.2 2272.8,692.2 2359.4,642.2 2359.4,542.2 2272.8,492.2 "/>
<polygon class="st1" points="2379.4,542.2 2379.4,642.2 2466,692.2 2552.6,642.2 2552.6,542.2 2466,492.2 "/>
<polygon class="st1" points="2572.6,542.2 2572.6,642.2 2659.2,692.2 2745.8,642.2 2745.8,542.2 2659.2,492.2 "/>
<polygon class="st0" points="2765.8,542.2 2765.8,642.2 2852.4,692.2 2939,642.2 2939,542.2 2852.4,492.2 "/>
<polygon class="st1" points="157.6,709.5 157.6,809.5 244.2,859.5 330.8,809.5 330.8,709.5 244.2,659.5 "/>
<polygon class="st1" points="350.8,709.5 350.8,809.5 437.4,859.5 524,809.5 524,709.5 437.4,659.5 "/>
<polygon class="st1" points="544,709.5 544,809.5 630.6,859.5 717.2,809.5 717.2,709.5 630.6,659.5 "/>
<polygon class="st1" points="737.2,709.5 737.2,809.5 823.8,859.5 910.4,809.5 910.4,709.5 823.8,659.5 "/>
<polygon class="st1" points="930.4,709.5 930.4,809.5 1017,859.5 1103.6,809.5 1103.6,709.5 1017,659.5 "/>
<polygon class="st1" points="1123.6,709.5 1123.6,809.5 1210.2,859.5 1296.8,809.5 1296.8,709.5 1210.2,659.5 "/>
<polygon class="st0" points="1316.8,709.5 1316.8,809.5 1403.4,859.5 1490,809.5 1490,709.5 1403.4,659.5 "/>
<polygon class="st1" points="1510,709.5 1510,809.5 1596.6,859.5 1683.2,809.5 1683.2,709.5 1596.6,659.5 "/>
<polygon class="st1" points="1703.2,709.5 1703.2,809.5 1789.8,859.5 1876.4,809.5 1876.4,709.5 1789.8,659.5 "/>
<polygon class="st1" points="1896.4,709.5 1896.4,809.5 1983,859.5 2069.6,809.5 2069.6,709.5 1983,659.5 "/>
<polygon class="st0" points="2089.6,709.5 2089.6,809.5 2176.2,859.5 2262.8,809.5 2262.8,709.5 2176.2,659.5 "/>
<polygon class="st2" points="2282.8,709.5 2282.8,809.5 2369.4,859.5 2456,809.5 2456,709.5 2369.4,659.5 "/>
<polygon class="st2" points="2476,709.5 2476,809.5 2562.6,859.5 2649.2,809.5 2649.2,709.5 2562.6,659.5 "/>
<polygon class="st1" points="2669.2,709.5 2669.2,809.5 2755.8,859.5 2842.4,809.5 2842.4,709.5 2755.8,659.5 "/>
<polygon class="st1" points="61,876.8 61,976.8 147.6,1026.8 234.2,976.8 234.2,876.8 147.6,826.8 "/>
<polygon class="st1" points="254.2,876.8 254.2,976.8 340.8,1026.8 427.4,976.8 427.4,876.8 340.8,826.8 "/>
<polygon class="st1" points="447.4,876.8 447.4,976.8 534,1026.8 620.6,976.8 620.6,876.8 534,826.8 "/>
<polygon class="st2" points="640.6,876.8 640.6,976.8 727.2,1026.8 813.8,976.8 813.8,876.8 727.2,826.8 "/>
<polygon class="st0" points="833.8,876.8 833.8,976.8 920.4,1026.8 1007,976.8 1007,876.8 920.4,826.8 "/>
<polygon class="st2" points="1027,876.8 1027,976.8 1113.6,1026.8 1200.2,976.8 1200.2,876.8 1113.6,826.8 "/>
<polygon class="st0" points="1220.2,876.8 1220.2,976.8 1306.8,1026.8 1393.4,976.8 1393.4,876.8 1306.8,826.8 "/>
<polygon class="st2" points="1413.4,876.8 1413.4,976.8 1500,1026.8 1586.6,976.8 1586.6,876.8 1500,826.8 "/>
<polygon class="st1" points="1606.6,876.8 1606.6,976.8 1693.2,1026.8 1779.8,976.8 1779.8,876.8 1693.2,826.8 "/>
<polygon class="st0" points="1799.8,876.8 1799.8,976.8 1886.4,1026.8 1973,976.8 1973,876.8 1886.4,826.8 "/>
<polygon class="st1" points="1993,876.8 1993,976.8 2079.6,1026.8 2166.2,976.8 2166.2,876.8 2079.6,826.8 "/>
<polygon class="st0" points="2186.2,876.8 2186.2,976.8 2272.8,1026.8 2359.4,976.8 2359.4,876.8 2272.8,826.8 "/>
<polygon class="st1" points="2379.4,876.8 2379.4,976.8 2466,1026.8 2552.6,976.8 2552.6,876.8 2466,826.8 "/>
<polygon class="st0" points="2572.6,876.8 2572.6,976.8 2659.2,1026.8 2745.8,976.8 2745.8,876.8 2659.2,826.8 "/>
<polygon class="st0" points="2765.8,876.8 2765.8,976.8 2852.4,1026.8 2939,976.8 2939,876.8 2852.4,826.8 "/>
<polygon class="st2" points="157.6,1044.2 157.6,1144.2 244.2,1194.2 330.8,1144.2 330.8,1044.2 244.2,994.2 "/>
<polygon class="st2" points="350.8,1044.2 350.8,1144.2 437.4,1194.2 524,1144.2 524,1044.2 437.4,994.2 "/>
<polygon class="st0" points="544,1044.2 544,1144.2 630.6,1194.2 717.2,1144.2 717.2,1044.2 630.6,994.2 "/>
<polygon class="st1" points="737.2,1044.2 737.2,1144.2 823.8,1194.2 910.4,1144.2 910.4,1044.2 823.8,994.2 "/>
<polygon class="st0" points="930.4,1044.2 930.4,1144.2 1017,1194.2 1103.6,1144.2 1103.6,1044.2 1017,994.2 "/>
<polygon class="st1" points="1123.6,1044.2 1123.6,1144.2 1210.2,1194.2 1296.8,1144.2 1296.8,1044.2 1210.2,994.2 "/>
<polygon class="st1" points="1316.8,1044.2 1316.8,1144.2 1403.4,1194.2 1490,1144.2 1490,1044.2 1403.4,994.2 "/>
<polygon class="st0" points="1510,1044.2 1510,1144.2 1596.6,1194.2 1683.2,1144.2 1683.2,1044.2 1596.6,994.2 "/>
<polygon class="st1" points="1703.2,1044.2 1703.2,1144.2 1789.8,1194.2 1876.4,1144.2 1876.4,1044.2 1789.8,994.2 "/>
<polygon class="st1" points="1896.4,1044.2 1896.4,1144.2 1983,1194.2 2069.6,1144.2 2069.6,1044.2 1983,994.2 "/>
<polygon class="st2" points="2089.6,1044.2 2089.6,1144.2 2176.2,1194.2 2262.8,1144.2 2262.8,1044.2 2176.2,994.2 "/>
<polygon class="st1" points="2282.8,1044.2 2282.8,1144.2 2369.4,1194.2 2456,1144.2 2456,1044.2 2369.4,994.2 "/>
<polygon class="st0" points="2476,1044.2 2476,1144.2 2562.6,1194.2 2649.2,1144.2 2649.2,1044.2 2562.6,994.2 "/>
<polygon class="st1" points="2669.2,1044.2 2669.2,1144.2 2755.8,1194.2 2842.4,1144.2 2842.4,1044.2 2755.8,994.2 "/>
<polygon class="st1" points="61,1211.5 61,1311.5 147.6,1361.5 234.2,1311.5 234.2,1211.5 147.6,1161.5 "/>
<polygon class="st0" points="254.2,1211.5 254.2,1311.5 340.8,1361.5 427.4,1311.5 427.4,1211.5 340.8,1161.5 "/>
<polygon class="st0" points="447.4,1211.5 447.4,1311.5 534,1361.5 620.6,1311.5 620.6,1211.5 534,1161.5 "/>
<polygon class="st0" points="640.6,1211.5 640.6,1311.5 727.2,1361.5 813.8,1311.5 813.8,1211.5 727.2,1161.5 "/>
<polygon class="st1" points="833.8,1211.5 833.8,1311.5 920.4,1361.5 1007,1311.5 1007,1211.5 920.4,1161.5 "/>
<polygon class="st0" points="1027,1211.5 1027,1311.5 1113.6,1361.5 1200.2,1311.5 1200.2,1211.5 1113.6,1161.5 "/>
<polygon class="st2" points="1220.2,1211.5 1220.2,1311.5 1306.8,1361.5 1393.4,1311.5 1393.4,1211.5 1306.8,1161.5 "/>
<polygon class="st1" points="1413.4,1211.5 1413.4,1311.5 1500,1361.5 1586.6,1311.5 1586.6,1211.5 1500,1161.5 "/>
<polygon class="st0" points="1606.6,1211.5 1606.6,1311.5 1693.2,1361.5 1779.8,1311.5 1779.8,1211.5 1693.2,1161.5 "/>
<polygon class="st0" points="1799.8,1211.5 1799.8,1311.5 1886.4,1361.5 1973,1311.5 1973,1211.5 1886.4,1161.5 "/>
<polygon class="st2" points="1993,1211.5 1993,1311.5 2079.6,1361.5 2166.2,1311.5 2166.2,1211.5 2079.6,1161.5 "/>
<polygon class="st1" points="2186.2,1211.5 2186.2,1311.5 2272.8,1361.5 2359.4,1311.5 2359.4,1211.5 2272.8,1161.5 "/>
<polygon class="st1" points="2379.4,1211.5 2379.4,1311.5 2466,1361.5 2552.6,1311.5 2552.6,1211.5 2466,1161.5 "/>
<polygon class="st0" points="2572.6,1211.5 2572.6,1311.5 2659.2,1361.5 2745.8,1311.5 2745.8,1211.5 2659.2,1161.5 "/>
<polygon class="st2" points="2765.8,1211.5 2765.8,1311.5 2852.4,1361.5 2939,1311.5 2939,1211.5 2852.4,1161.5 "/>
<polygon class="st2" points="157.6,1378.8 157.6,1478.8 244.2,1528.8 330.8,1478.8 330.8,1378.8 244.2,1328.8 "/>
<polygon class="st1" points="350.8,1378.8 350.8,1478.8 437.4,1528.8 524,1478.8 524,1378.8 437.4,1328.8 "/>
<polygon class="st2" points="544,1378.8 544,1478.8 630.6,1528.8 717.2,1478.8 717.2,1378.8 630.6,1328.8 "/>
<polygon class="st2" points="737.2,1378.8 737.2,1478.8 823.8,1528.8 910.4,1478.8 910.4,1378.8 823.8,1328.8 "/>
<polygon class="st1" points="930.4,1378.8 930.4,1478.8 1017,1528.8 1103.6,1478.8 1103.6,1378.8 1017,1328.8 "/>
<polygon class="st1" points="1123.6,1378.8 1123.6,1478.8 1210.2,1528.8 1296.8,1478.8 1296.8,1378.8 1210.2,1328.8 "/>
<polygon class="st1" points="1316.8,1378.8 1316.8,1478.8 1403.4,1528.8 1490,1478.8 1490,1378.8 1403.4,1328.8 "/>
<polygon class="st0" points="1510,1378.8 1510,1478.8 1596.6,1528.8 1683.2,1478.8 1683.2,1378.8 1596.6,1328.8 "/>
<polygon class="st1" points="1703.2,1378.8 1703.2,1478.8 1789.8,1528.8 1876.4,1478.8 1876.4,1378.8 1789.8,1328.8 "/>
<polygon class="st2" points="1896.4,1378.8 1896.4,1478.8 1983,1528.8 2069.6,1478.8 2069.6,1378.8 1983,1328.8 "/>
<polygon class="st1" points="2089.6,1378.8 2089.6,1478.8 2176.2,1528.8 2262.8,1478.8 2262.8,1378.8 2176.2,1328.8 "/>
<polygon class="st0" points="2282.8,1378.8 2282.8,1478.8 2369.4,1528.8 2456,1478.8 2456,1378.8 2369.4,1328.8 "/>
<polygon class="st1" points="2476,1378.8 2476,1478.8 2562.6,1528.8 2649.2,1478.8 2649.2,1378.8 2562.6,1328.8 "/>
<polygon class="st1" points="2669.2,1378.8 2669.2,1478.8 2755.8,1528.8 2842.4,1478.8 2842.4,1378.8 2755.8,1328.8 "/>
<polygon class="st0" points="61,1546.1 61,1646.1 147.6,1696.1 234.2,1646.1 234.2,1546.1 147.6,1496.1 "/>
<polygon class="st2" points="254.2,1546.1 254.2,1646.1 340.8,1696.1 427.4,1646.1 427.4,1546.1 340.8,1496.1 "/>
<polygon class="st0" points="447.4,1546.1 447.4,1646.1 534,1696.1 620.6,1646.1 620.6,1546.1 534,1496.1 "/>
<polygon class="st0" points="640.6,1546.1 640.6,1646.1 727.2,1696.1 813.8,1646.1 813.8,1546.1 727.2,1496.1 "/>
<polygon class="st1" points="833.8,1546.1 833.8,1646.1 920.4,1696.1 1007,1646.1 1007,1546.1 920.4,1496.1 "/>
<polygon class="st2" points="1027,1546.1 1027,1646.1 1113.6,1696.1 1200.2,1646.1 1200.2,1546.1 1113.6,1496.1 "/>
<polygon class="st0" points="1220.2,1546.1 1220.2,1646.1 1306.8,1696.1 1393.4,1646.1 1393.4,1546.1 1306.8,1496.1 "/>
<polygon class="st2" points="1413.4,1546.1 1413.4,1646.1 1500,1696.1 1586.6,1646.1 1586.6,1546.1 1500,1496.1 "/>
<polygon class="st1" points="1606.6,1546.1 1606.6,1646.1 1693.2,1696.1 1779.8,1646.1 1779.8,1546.1 1693.2,1496.1 "/>
<polygon class="st1" points="1799.8,1546.1 1799.8,1646.1 1886.4,1696.1 1973,1646.1 1973,1546.1 1886.4,1496.1 "/>
<polygon class="st2" points="1993,1546.1 1993,1646.1 2079.6,1696.1 2166.2,1646.1 2166.2,1546.1 2079.6,1496.1 "/>
<polygon class="st1" points="2186.2,1546.1 2186.2,1646.1 2272.8,1696.1 2359.4,1646.1 2359.4,1546.1 2272.8,1496.1 "/>
<polygon class="st1" points="2379.4,1546.1 2379.4,1646.1 2466,1696.1 2552.6,1646.1 2552.6,1546.1 2466,1496.1 "/>
<polygon class="st2" points="2572.6,1546.1 2572.6,1646.1 2659.2,1696.1 2745.8,1646.1 2745.8,1546.1 2659.2,1496.1 "/>
<polygon class="st1" points="2765.8,1546.1 2765.8,1646.1 2852.4,1696.1 2939,1646.1 2939,1546.1 2852.4,1496.1 "/>
<polygon class="st1" points="157.6,1713.4 157.6,1813.4 244.2,1863.4 330.8,1813.4 330.8,1713.4 244.2,1663.4 "/>
<polygon class="st1" points="350.8,1713.4 350.8,1813.4 437.4,1863.4 524,1813.4 524,1713.4 437.4,1663.4 "/>
<polygon class="st1" points="544,1713.4 544,1813.4 630.6,1863.4 717.2,1813.4 717.2,1713.4 630.6,1663.4 "/>
<polygon class="st1" points="737.2,1713.4 737.2,1813.4 823.8,1863.4 910.4,1813.4 910.4,1713.4 823.8,1663.4 "/>
<polygon class="st1" points="930.4,1713.4 930.4,1813.4 1017,1863.4 1103.6,1813.4 1103.6,1713.4 1017,1663.4 "/>
<polygon class="st1" points="1123.6,1713.4 1123.6,1813.4 1210.2,1863.4 1296.8,1813.4 1296.8,1713.4 1210.2,1663.4 "/>
<polygon class="st0" points="1316.8,1713.4 1316.8,1813.4 1403.4,1863.4 1490,1813.4 1490,1713.4 1403.4,1663.4 "/>
<polygon class="st1" points="1510,1713.4 1510,1813.4 1596.6,1863.4 1683.2,1813.4 1683.2,1713.4 1596.6,1663.4 "/>
<polygon class="st2" points="1703.2,1713.4 1703.2,1813.4 1789.8,1863.4 1876.4,1813.4 1876.4,1713.4 1789.8,1663.4 "/>
<polygon class="st1" points="1896.4,1713.4 1896.4,1813.4 1983,1863.4 2069.6,1813.4 2069.6,1713.4 1983,1663.4 "/>
<polygon class="st1" points="2089.6,1713.4 2089.6,1813.4 2176.2,1863.4 2262.8,1813.4 2262.8,1713.4 2176.2,1663.4 "/>
<polygon class="st1" points="2282.8,1713.4 2282.8,1813.4 2369.4,1863.4 2456,1813.4 2456,1713.4 2369.4,1663.4 "/>
<polygon class="st2" points="2476,1713.4 2476,1813.4 2562.6,1863.4 2649.2,1813.4 2649.2,1713.4 2562.6,1663.4 "/>
<polygon class="st0" points="2669.2,1713.4 2669.2,1813.4 2755.8,1863.4 2842.4,1813.4 2842.4,1713.4 2755.8,1663.4 "/>
</svg>
