<?xml version="1.0" encoding="utf-8"?>
<!-- Generator: Adobe Illustrator 16.0.0, SVG Export Plug-In . SVG Version: 6.00 Build 0)  -->
<!DOCTYPE svg PUBLIC "-//W3C//DTD SVG 1.1//EN" "http://www.w3.org/Graphics/SVG/1.1/DTD/svg11.dtd">
<svg version="1.1" id="Layer_1" xmlns="http://www.w3.org/2000/svg" xmlns:xlink="http://www.w3.org/1999/xlink" x="0px" y="0px"
	 width="600px" height="600px" viewBox="0 0 600 600" enable-background="new 0 0 600 600" xml:space="preserve">
<circle fill="#C7D6E9" cx="308" cy="303.797" r="221"/>
<g>
	<path fill="#979694" d="M319.92,249.15c-0.019,1.035-0.061,2.075-0.137,3.12c-2.261,31.035-29.35,54.445-60.385,52.183
		c-31.035-2.261-54.445-29.35-52.184-60.385c0.076-1.044,0.186-2.079,0.317-3.106l-8.597-0.626
		c-0.124,1.028-0.228,2.064-0.304,3.108c-2.605,35.767,24.374,66.985,60.142,69.591s66.986-24.371,69.593-60.139
		c0.076-1.044,0.125-2.083,0.151-3.119L319.92,249.15z"/>
	<g opacity="0.2">
		<path fill="#231F20" d="M272.116,296.714c11.417,29.112,44.272,43.452,73.38,32.037c29.107-11.412,43.458-44.262,32.041-73.378
			c-11.414-29.107-44.272-43.454-73.381-32.04C275.05,234.747,260.701,267.605,272.116,296.714z M307.504,257.648
			c-1.898-4.841,0.482-10.308,5.323-12.206s10.304,0.493,12.202,5.334c1.898,4.841-0.486,10.3-5.326,12.199
			C314.861,264.873,309.402,262.49,307.504,257.648z"/>
		<path fill="#4B3A64" d="M280.593,293.389c9.579,24.432,37.147,36.469,61.579,26.887c24.434-9.579,36.471-37.147,26.89-61.579
			c-9.58-24.433-37.147-36.47-61.58-26.889S271.012,268.957,280.593,293.389z M307.504,257.648
			c-1.898-4.841,0.482-10.308,5.323-12.206s10.304,0.493,12.202,5.334c1.898,4.841-0.486,10.3-5.326,12.199
			C314.861,264.873,309.402,262.49,307.504,257.648z"/>
		<path fill="#4B3A64" d="M321.396,344.398c0.776,1.978,3.01,2.951,4.988,2.175l45.244-17.739c1.979-0.776,2.953-3.009,2.178-4.988
			l0,0c-0.775-1.978-3.009-2.953-4.986-2.177l-45.245,17.742C321.597,340.188,320.623,342.419,321.396,344.398L321.396,344.398z"/>
		<g opacity="0.9">
			<g>
				<path fill="#4B3A64" d="M308.446,286.69c0.581,1.478,2.248,2.207,3.726,1.627L343.583,276c1.478-0.58,2.205-2.248,1.627-3.725
					l0,0c-0.58-1.478-2.247-2.206-3.726-1.626l-31.41,12.317C308.596,283.546,307.868,285.213,308.446,286.69L308.446,286.69z"/>
				<path fill="#4B3A64" d="M322.395,293.693c0.58,1.478,2.247,2.204,3.725,1.625l11.994-4.701c1.478-0.58,2.205-2.248,1.625-3.726
					l0,0c-0.578-1.477-2.246-2.205-3.724-1.626l-11.993,4.703C322.544,290.547,321.814,292.216,322.395,293.693L322.395,293.693z"/>
			</g>
		</g>
	</g>
	<path fill="#706D64" d="M214.245,288.938c2.594,31.164,29.961,54.319,61.119,51.724c31.157-2.592,54.321-29.95,51.728-61.117
		c-2.594-31.157-29.961-54.319-61.12-51.727C234.815,230.412,211.652,257.779,214.245,288.938z M259.344,261.654
		c-0.431-5.182,3.417-9.737,8.599-10.169c5.183-0.431,9.73,3.426,10.162,8.607c0.431,5.183-3.419,9.729-8.6,10.161
		C264.323,270.684,259.775,266.836,259.344,261.654z"/>
	<path fill="#706D64" d="M223.318,288.183c2.176,26.151,25.138,45.583,51.291,43.407c26.152-2.176,45.586-25.136,43.409-51.289
		c-2.176-26.153-25.137-45.586-51.291-43.41C240.574,239.068,221.142,262.029,223.318,288.183z M259.344,261.654
		c-0.431-5.182,3.417-9.737,8.599-10.169c5.183-0.431,9.73,3.426,10.162,8.607c0.431,5.183-3.419,9.729-8.6,10.161
		C264.323,270.684,259.775,266.836,259.344,261.654z"/>
	<polygon fill="#706D64" points="254.649,289.521 287.34,286.802 300.87,449.384 286.138,470.116 268.18,452.104 273.444,439.676 
		265.806,423.586 273.7,408.564 263.381,394.445 271.362,385.355 261.472,371.506 	"/>
	<path fill="#706D64" d="M247.791,348.747c0.178,2.115,2.037,3.69,4.155,3.514l48.432-4.03c2.117-0.177,3.691-2.036,3.515-4.153l0,0
		c-0.176-2.116-2.036-3.691-4.153-3.515l-48.432,4.03C249.19,344.77,247.617,346.629,247.791,348.747L247.791,348.747z"/>
	<path fill="#979694" d="M271.551,332.279l9.506,114.218c0.125,1.522,1.613,2.64,3.323,2.498c1.709-0.145,2.992-1.492,2.865-3.013
		l-9.506-114.22c24.576-3.651,42.417-25.812,40.327-50.922c-2.176-26.152-25.141-45.589-51.294-43.412
		c-26.152,2.177-45.588,25.142-43.412,51.293C225.451,313.832,246.71,332.741,271.551,332.279z M230.356,288.14
		c-1.854-22.289,14.71-41.861,36.999-43.715c22.289-1.855,41.86,14.709,43.716,36.998s-14.709,41.861-36.999,43.714
		C251.784,326.991,232.213,310.428,230.356,288.14z"/>
	<g opacity="0.2">
		<g>
			<g>
				<g>
					<path fill="#071B21" d="M241.05,299.391c8.739,30.024,40.165,47.275,70.184,38.537c30.021-8.736,47.28-40.154,38.541-70.183
						c-8.737-30.019-40.166-47.276-70.186-38.539C249.57,237.943,232.312,269.371,241.05,299.391z M279.822,263.683
						c-1.453-4.993,1.411-10.222,6.403-11.675c4.994-1.453,10.218,1.422,11.671,6.415c1.453,4.993-1.414,10.215-6.406,11.668
						C286.497,271.543,281.274,268.677,279.822,263.683z"/>
				</g>
			</g>
			<path fill="#071B21" d="M249.791,296.848c7.334,25.196,33.702,39.674,58.899,32.339c25.198-7.332,39.677-33.699,32.342-58.896
				c-7.333-25.198-33.7-39.677-58.898-32.343C256.936,245.281,242.457,271.648,249.791,296.848z M279.822,263.683
				c-1.453-4.993,1.411-10.222,6.403-11.675c4.994-1.453,10.218,1.422,11.671,6.415c1.453,4.993-1.414,10.215-6.406,11.668
				C286.497,271.543,281.274,268.677,279.822,263.683z"/>
			<g>
				<path fill="#071B21" d="M278.137,292.692c0.445,1.523,2.04,2.399,3.563,1.957l32.395-9.429c1.524-0.444,2.399-2.04,1.958-3.563
					l0,0c-0.444-1.524-2.039-2.401-3.564-1.957l-32.395,9.429C278.569,289.574,277.694,291.169,278.137,292.692L278.137,292.692z"/>
				<path fill="#071B21" d="M291.396,300.927c0.443,1.522,2.038,2.398,3.563,1.955l12.368-3.601c1.525-0.443,2.4-2.038,1.956-3.563
					l0,0c-0.442-1.524-2.037-2.399-3.561-1.956l-12.37,3.601C291.827,297.807,290.951,299.402,291.396,300.927L291.396,300.927z"/>
			</g>
		</g>
	</g>
	<g>
		<path fill="#EE3466" d="M251.924,289.749c0.133,1.581,1.522,2.757,3.104,2.626l33.623-2.798c1.582-0.132,2.757-1.521,2.626-3.103
			l0,0c-0.133-1.582-1.521-2.758-3.104-2.625l-33.622,2.798C252.968,286.778,251.793,288.167,251.924,289.749L251.924,289.749z"/>
		<path fill="#EE3466" d="M263.28,300.454c0.132,1.582,1.521,2.757,3.103,2.625l12.838-1.066c1.582-0.133,2.757-1.521,2.625-3.103
			l0,0c-0.131-1.583-1.52-2.757-3.102-2.626l-12.838,1.069C264.324,297.483,263.147,298.872,263.28,300.454L263.28,300.454z"/>
	</g>
	<path fill="#89878C" d="M246.059,295.776c8.74,30.024,40.165,47.275,70.185,38.537c30.02-8.736,47.28-40.154,38.541-70.183
		c-8.737-30.019-40.166-47.276-70.187-38.539C254.58,234.329,237.321,265.756,246.059,295.776z M284.832,260.068
		c-1.454-4.992,1.411-10.222,6.403-11.675c4.993-1.453,10.217,1.422,11.671,6.415c1.452,4.993-1.415,10.215-6.407,11.668
		C291.507,267.929,286.284,265.063,284.832,260.068z"/>
	<path fill="#89878C" d="M254.8,293.233c7.334,25.196,33.702,39.674,58.899,32.339c25.198-7.332,39.678-33.699,32.343-58.896
		c-7.333-25.198-33.7-39.677-58.898-32.343C261.945,241.667,247.467,268.034,254.8,293.233z M284.832,260.068
		c-1.454-4.992,1.411-10.222,6.403-11.675c4.993-1.453,10.217,1.422,11.671,6.415c1.452,4.993-1.415,10.215-6.407,11.668
		C291.507,267.929,286.284,265.063,284.832,260.068z"/>
	<polygon fill="#89878C" points="285.771,288.313 317.27,279.146 362.861,435.79 352.545,459.037 331.363,444.957 334.052,431.73 
		323.366,417.48 328.116,401.191 315.194,389.406 321.209,378.907 308.763,367.305 	"/>
	<path fill="#89878C" d="M290.828,347.719c0.595,2.039,2.731,3.211,4.772,2.617l46.661-13.58c2.04-0.594,3.214-2.729,2.619-4.77l0,0
		c-0.593-2.039-2.729-3.213-4.769-2.617l-46.663,13.58C291.409,343.543,290.237,345.679,290.828,347.719L290.828,347.719z"/>
	<path fill="#706D64" d="M310.839,326.854l32.029,110.048c0.427,1.467,2.107,2.265,3.754,1.785c1.646-0.479,2.636-2.054,2.209-3.521
		l-32.03-110.048c23.359-8.465,36.437-33.731,29.395-57.924c-7.332-25.197-33.704-39.679-58.901-32.345
		c-25.197,7.333-39.678,33.705-32.345,58.903C261.992,317.945,286.585,332.249,310.839,326.854z M261.689,291.791
		c-6.25-21.475,6.092-43.95,27.567-50.2c21.475-6.25,43.949,6.092,50.198,27.565c6.251,21.475-6.09,43.951-27.564,50.199
		C290.416,325.605,267.941,313.264,261.689,291.791z"/>
	<g opacity="0.2">
		<g>
			<g>
				<g>
					<path fill="#071B21" d="M272.928,290.949c8.739,30.024,40.165,47.275,70.184,38.537c30.021-8.736,47.28-40.154,38.541-70.183
						c-8.737-30.019-40.166-47.276-70.186-38.539C281.448,229.5,264.189,260.928,272.928,290.949z M311.7,255.241
						c-1.453-4.993,1.411-10.222,6.403-11.675c4.994-1.453,10.218,1.422,11.671,6.415c1.453,4.993-1.414,10.215-6.406,11.668
						C318.375,263.101,313.152,260.234,311.7,255.241z"/>
				</g>
			</g>
			<path fill="#071B21" d="M281.669,288.405c7.334,25.196,33.702,39.674,58.899,32.339c25.198-7.332,39.677-33.699,32.342-58.896
				c-7.333-25.198-33.7-39.677-58.898-32.343C288.813,236.838,274.335,263.206,281.669,288.405z M311.7,255.241
				c-1.453-4.993,1.411-10.222,6.403-11.675c4.994-1.453,10.218,1.422,11.671,6.415c1.453,4.993-1.414,10.215-6.406,11.668
				C318.375,263.101,313.152,260.234,311.7,255.241z"/>
			<g>
				<path fill="#071B21" d="M310.015,284.25c0.445,1.523,2.04,2.399,3.563,1.957l32.395-9.429c1.524-0.444,2.399-2.04,1.958-3.563
					l0,0c-0.444-1.524-2.039-2.401-3.564-1.957l-32.395,9.429C310.447,281.131,309.572,282.727,310.015,284.25L310.015,284.25z"/>
				<path fill="#071B21" d="M323.273,292.484c0.443,1.522,2.038,2.398,3.563,1.955l12.368-3.601c1.525-0.443,2.4-2.038,1.956-3.563
					l0,0c-0.442-1.524-2.037-2.399-3.561-1.956l-12.37,3.601C323.705,289.365,322.829,290.959,323.273,292.484L323.273,292.484z"/>
			</g>
		</g>
	</g>
	<g>
		<path fill="#EE3466" d="M283.146,289.078c0.445,1.523,2.04,2.399,3.563,1.957l32.396-9.429c1.524-0.444,2.399-2.039,1.957-3.562
			l0,0c-0.444-1.524-2.039-2.401-3.563-1.957l-32.395,9.429C283.578,285.959,282.703,287.555,283.146,289.078L283.146,289.078z"/>
		<path fill="#EE3466" d="M296.404,297.313c0.443,1.522,2.039,2.398,3.563,1.955l12.368-3.601c1.524-0.443,2.399-2.038,1.955-3.563
			l0,0c-0.441-1.523-2.037-2.398-3.561-1.955l-12.369,3.601C296.837,294.193,295.961,295.788,296.404,297.313L296.404,297.313z"/>
	</g>
	<path fill="#F9F7F8" d="M280.246,293.729c11.417,29.114,44.272,43.454,73.38,32.039c29.107-11.412,43.458-44.263,32.041-73.378
		c-11.414-29.107-44.272-43.454-73.38-32.041C283.18,231.763,268.832,264.621,280.246,293.729z M315.634,254.664
		c-1.898-4.84,0.482-10.308,5.323-12.206c4.841-1.898,10.304,0.493,12.202,5.333c1.898,4.842-0.486,10.301-5.326,12.199
		C322.991,261.889,317.532,259.506,315.634,254.664z"/>
	<path fill="#F9F7F8" d="M288.723,290.406c9.58,24.431,37.147,36.469,61.58,26.887c24.432-9.58,36.47-37.147,26.889-61.579
		c-9.58-24.433-37.147-36.47-61.58-26.889S279.142,265.973,288.723,290.406z M315.634,254.664
		c-1.898-4.84,0.482-10.308,5.323-12.206c4.841-1.898,10.304,0.493,12.202,5.333c1.898,4.842-0.486,10.301-5.326,12.199
		C322.991,261.889,317.532,259.506,315.634,254.664z"/>
	<polygon fill="#F9F7F8" points="319.123,282.709 349.662,270.733 409.221,422.616 401.048,446.701 378.682,434.593 
		380.163,421.179 368.234,407.95 371.493,391.298 357.56,380.729 362.601,369.731 349.156,359.299 	"/>
	<path fill="#F9F7F8" d="M329.526,341.415c0.776,1.978,3.01,2.951,4.988,2.175l45.245-17.739c1.978-0.776,2.952-3.009,2.176-4.988
		l0,0c-0.775-1.977-3.008-2.952-4.985-2.176l-45.245,17.741C329.727,337.203,328.752,339.436,329.526,341.415L329.526,341.415z"/>
	<path fill="#89878C" d="M347.569,318.828l41.842,106.702c0.558,1.423,2.304,2.067,3.899,1.441c1.598-0.628,2.439-2.286,1.882-3.707
		l-41.842-106.704c22.499-10.541,33.239-36.886,24.041-60.344c-9.58-24.431-37.152-36.471-61.584-26.89
		c-24.432,9.581-36.47,37.152-26.89,61.584C298.117,314.367,323.902,326.391,347.569,318.828z M295.453,288.347
		c-8.165-20.822,2.096-44.321,22.918-52.485c20.822-8.165,44.32,2.095,52.484,22.917c8.166,20.821-2.094,44.321-22.916,52.485
		S303.619,309.169,295.453,288.347z"/>
	<g>
		<path fill="#89878C" d="M316.576,283.707c0.581,1.477,2.248,2.206,3.727,1.626l31.41-12.317c1.478-0.58,2.205-2.248,1.627-3.725
			l0,0c-0.58-1.478-2.247-2.206-3.726-1.626l-31.41,12.317C316.726,280.562,315.998,282.229,316.576,283.707L316.576,283.707z"/>
		<path fill="#89878C" d="M330.524,290.709c0.58,1.478,2.247,2.205,3.725,1.625l11.994-4.703c1.478-0.58,2.205-2.247,1.625-3.725
			l0,0c-0.578-1.478-2.246-2.205-3.724-1.626l-11.993,4.704C330.674,287.564,329.945,289.231,330.524,290.709L330.524,290.709z"/>
	</g>
	<path fill="#979694" d="M279.76,182.83c0.09,0.02,0.17,0.04,0.26,0.07l-2.97,8.12c-3-0.73-6.1-1.23-9.28-1.46
		c-31.039-2.26-58.119,21.15-60.39,52.19c-0.07,1.04-0.11,2.08-0.13,3.12l-8.6-0.63c0.029-1.03,0.08-2.07,0.149-3.12
		c2.61-35.77,33.83-62.74,69.59-60.14C272.3,181.27,276.1,181.89,279.76,182.83z"/>
	<path fill="#979694" d="M328.54,250.57c-0.08,1.05-0.18,2.08-0.31,3.11l-8.591-0.62c0.13-1.03,0.24-2.07,0.311-3.11
		c0.74-10.13-1.26-19.83-5.36-28.39c2.65-0.18,5.51-0.42,8.57-0.73l0.51-0.06C327.51,229.9,329.31,240.04,328.54,250.57z"/>
	<path fill="#706D64" d="M385.463,160.175c1.145,2.479-0.378,5.62-3.4,7.017l-104.239,48.151c-3.023,1.397-6.401,0.519-7.547-1.959
		l-18.083-39.149c-1.146-2.479,0.377-5.62,3.399-7.017l104.239-48.151c3.023-1.396,6.402-0.519,7.547,1.959L385.463,160.175z"/>
	<path fill="#89878C" d="M377.161,159.087c0.902,1.954-0.597,4.568-3.346,5.839l-94.824,43.801c-2.75,1.271-5.71,0.716-6.613-1.237
		l-14.257-30.864c-0.903-1.954,0.595-4.568,3.345-5.839l94.824-43.801c2.751-1.271,5.712-0.716,6.613,1.237L377.161,159.087z"/>
	<circle fill="#706D64" cx="277.757" cy="186.897" r="7.887"/>
	<g>
		
			<rect x="280.406" y="150.867" transform="matrix(0.906 -0.4232 0.4232 0.906 -35.2029 149.5807)" fill="#F9F7F8" width="77.644" height="6.388"/>
		
			<rect x="289.363" y="173.496" transform="matrix(0.906 -0.4232 0.4232 0.906 -43.9382 155.4957)" fill="#F9F7F8" width="77.644" height="6.388"/>
		
			<rect x="287.329" y="168.081" transform="matrix(0.906 -0.4232 0.4232 0.906 -43.2323 147.8345)" fill="#706D64" width="47.941" height="6.387"/>
	</g>
	<path fill="#979694" d="M323.67,220.77l-0.51,0.06c-3.061,0.31-5.92,0.55-8.57,0.73c-7.18-14.99-20.82-26.47-37.54-30.54l2.97-8.12
		C299.94,188.06,315.94,202.37,323.67,220.77z"/>
	<path fill="#979694" d="M277.05,191.02c0,0-4.737-6.426,2.97-8.12"/>
</g>
</svg>
