<?xml version="1.0" encoding="utf-8"?>
<!-- Generator: Adobe Illustrator 16.0.0, SVG Export Plug-In . SVG Version: 6.00 Build 0)  -->
<!DOCTYPE svg PUBLIC "-//W3C//DTD SVG 1.1//EN" "http://www.w3.org/Graphics/SVG/1.1/DTD/svg11.dtd">
<svg version="1.1" id="Layer_1" xmlns="http://www.w3.org/2000/svg" xmlns:xlink="http://www.w3.org/1999/xlink" x="0px" y="0px"
	 width="600px" height="600px" viewBox="0 0 600 600" enable-background="new 0 0 600 600" xml:space="preserve">
<g>
	<defs>
		<circle id="SVGID_1_" cx="306" cy="303.797" r="221"/>
	</defs>
	<clipPath id="SVGID_2_">
		<use xlink:href="#SVGID_1_"  overflow="visible"/>
	</clipPath>
	<circle clip-path="url(#SVGID_2_)" fill="#C7D6E9" cx="306" cy="303.797" r="221"/>
	<g clip-path="url(#SVGID_2_)">
		<defs>
			<circle id="SVGID_3_" cx="306" cy="303.797" r="221"/>
		</defs>
		<clipPath id="SVGID_4_">
			<use xlink:href="#SVGID_3_"  overflow="visible"/>
		</clipPath>
		<g clip-path="url(#SVGID_4_)">
			<rect x="109.331" y="406.346" fill="#A0C3E3" width="447.337" height="204.319"/>
			<rect x="392" y="258.998" fill="#A0C3E3" width="81.335" height="197"/>
			<rect x="201.335" y="324.998" fill="#A0C3E3" width="71.817" height="131"/>
			<rect x="261.183" y="354.998" fill="#A0C3E3" width="142.152" height="131"/>
			<rect x="439.335" y="243.998" fill="#A0C3E3" width="20.5" height="38.5"/>
			<rect x="216.744" y="312.498" fill="#A0C3E3" width="20.5" height="38.5"/>
			<g>
				<circle fill="#A0C3E3" cx="149.835" cy="359.248" r="27.5"/>
				<rect x="144.835" y="370.998" fill="#A0C3E3" width="10" height="53.5"/>
			</g>
			<g>
				<circle fill="#A0C3E3" cx="512.412" cy="366.396" r="22.077"/>
				<rect x="508.398" y="375.829" fill="#A0C3E3" width="8.028" height="42.949"/>
			</g>
			<g>
				<rect x="486.28" y="395.537" fill="#A0C3E3" width="44.236" height="3.533"/>
				<rect x="487.668" y="397.304" fill="#A0C3E3" width="9" height="13.361"/>
				<rect x="521.516" y="397.304" fill="#A0C3E3" width="9" height="13.361"/>
			</g>
			<circle fill="#A0C3E3" cx="178.815" cy="397.748" r="13.833"/>
			<circle fill="#A0C3E3" cx="482.835" cy="403.984" r="13.833"/>
			<circle fill="#A0C3E3" cx="496.668" cy="414.131" r="13.833"/>
			<circle fill="#A0C3E3" cx="192.649" cy="403.984" r="10.147"/>
			<circle fill="#A0C3E3" cx="132.482" cy="407.896" r="10.147"/>
			<circle fill="#A0C3E3" cx="164.982" cy="407.896" r="10.147"/>
			<rect x="332.259" y="316.998" fill="#A0C3E3" width="50.5" height="56.5"/>
		</g>
	</g>
	<path clip-path="url(#SVGID_2_)" fill="#5D5D5D" d="M363.667,329.464c0,16.568-13.432,30-30,30h-50c-16.568,0-30-13.432-30-30
		v-58.667c0-16.568,13.432-30,30-30h50c16.568,0,30,13.432,30,30V329.464z"/>
	<path clip-path="url(#SVGID_2_)" fill="#82A3C6" d="M274.157,531.412c-2.753,16.166-18.088,27.036-34.252,24.284l0,0
		c-16.164-2.753-27.036-18.089-24.283-34.253l9.284-54.503c2.753-16.166,18.088-27.037,34.252-24.284l0,0
		c16.164,2.753,27.036,18.089,24.283,34.253L274.157,531.412z"/>
	<path clip-path="url(#SVGID_2_)" fill="#82A3C6" d="M402.208,522.232c2.374,16.225-8.855,31.301-25.08,33.674l0,0
		c-16.224,2.373-31.3-8.854-33.673-25.08l-8.002-54.706c-2.374-16.225,8.855-31.301,25.079-33.674l0,0
		c16.224-2.373,31.301,8.855,33.674,25.08L402.208,522.232z"/>
	<path clip-path="url(#SVGID_2_)" fill="#82A3C6" d="M379.859,549.463c0,22.092-17.909,40-40,40h-58.467c-22.091,0-40-17.908-40-40
		v-90c0-22.092,17.909-40,40-40h58.467c22.091,0,40,17.908,40,40V549.463z"/>
	<path clip-path="url(#SVGID_2_)" fill="#5D5D5D" d="M342.192,428.757c0,10.791-7.368,19.54-16.458,19.54h-36.726
		c-9.089,0-16.458-8.749-16.458-19.54l0,0c0-10.793,7.368-19.542,16.458-19.542h36.726
		C334.824,409.215,342.192,417.964,342.192,428.757L342.192,428.757z"/>
	<path clip-path="url(#SVGID_2_)" fill="#EF937E" d="M326.372,423.13c0,10.493-8.506,19-19,19l0,0c-10.494,0-19-8.507-19-19v-64.911
		c0-10.493,8.506-19,19-19l0,0c10.494,0,19,8.507,19,19V423.13z"/>
	<path clip-path="url(#SVGID_2_)" fill="#FEC09B" d="M356.119,353.135c0,26.922-21.825,48.747-48.748,48.747l0,0
		c-26.922,0-48.748-21.825-48.748-48.747v-46.498c0-26.922,21.825-48.748,48.748-48.748l0,0c26.922,0,48.748,21.825,48.748,48.748
		V353.135z"/>
	<circle clip-path="url(#SVGID_2_)" fill="#FEC09B" cx="357.414" cy="341.549" r="16.833"/>
	<circle clip-path="url(#SVGID_2_)" fill="#FEC09B" cx="259.919" cy="341.549" r="16.833"/>
	<path clip-path="url(#SVGID_2_)" fill="#5D5D5D" d="M238.245,224.658l-4.621,26.819c-3.403,19.749,8.486,43.4,26.876,46.569
		l39.11,1.621c18.391,3.169,36.058-10.272,39.46-30.021l4.621-26.819L238.245,224.658z"/>
	<path clip-path="url(#SVGID_2_)" fill="#5D5D5D" d="M326.372,284.796c0,0,10.961,17.334,31.628,21.667
		c1.667-6.334,3.333-25.333-5.167-31s-8.167-10.334-14.833-11.667s-10.333-5.333-18.333,0"/>
	<g clip-path="url(#SVGID_2_)">
		<path fill="#5D5D5D" d="M342.786,243.615c0,2.112-1.712,3.825-3.825,3.825l0,0c-2.112,0-3.825-1.712-3.825-3.825v-6.85
			c0-2.112,1.712-3.825,3.825-3.825l0,0c2.112,0,3.825,1.712,3.825,3.825V243.615z"/>
		<path fill="#5D5D5D" d="M345.622,247.154c-1.62,1.355-4.032,1.141-5.388-0.479l0,0c-1.355-1.62-1.141-4.032,0.479-5.388
			l5.253-4.396c1.62-1.355,4.032-1.141,5.388,0.479l0,0c1.355,1.62,1.141,4.032-0.479,5.388L345.622,247.154z"/>
	</g>
	<g clip-path="url(#SVGID_2_)">
		<path fill="#EF947F" d="M356.622,332.215v16.166c4.464,0,8.083-3.619,8.083-8.083S361.086,332.215,356.622,332.215z"/>
		<path fill="#EF947F" d="M260.205,332.215v16.166c-4.464,0-8.083-3.619-8.083-8.083S255.74,332.215,260.205,332.215z"/>
	</g>
	<path clip-path="url(#SVGID_2_)" fill="#5D5D5D" d="M360.663,335.754c0,2.51-2.034,4.544-4.544,4.544l0,0
		c-2.509,0-4.544-2.034-4.544-4.544v-37.58c0-2.51,2.035-4.544,4.544-4.544l0,0c2.51,0,4.544,2.034,4.544,4.544V335.754z"/>
	<path clip-path="url(#SVGID_2_)" fill="#5D5D5D" d="M267.712,335.754c0,2.51-2.034,4.544-4.544,4.544l0,0
		c-2.509,0-4.544-2.034-4.544-4.544v-37.58c0-2.51,2.035-4.544,4.544-4.544l0,0c2.51,0,4.544,2.034,4.544,4.544V335.754z"/>
	<g clip-path="url(#SVGID_2_)">
		<path fill="#89878C" d="M346.039,316.829c0,1.497-1.213,2.71-2.709,2.71h-20.953c-1.497,0-2.709-1.213-2.709-2.71l0,0
			c0-1.496,1.213-2.709,2.709-2.709h20.953C344.826,314.12,346.039,315.333,346.039,316.829L346.039,316.829z"/>
		<circle fill="#5D5D5D" cx="332.853" cy="327.081" r="4.5"/>
	</g>
	<g clip-path="url(#SVGID_2_)">
		<path fill="#89878C" d="M301.553,316.829c0,1.497-1.213,2.71-2.709,2.71h-20.953c-1.497,0-2.709-1.213-2.709-2.71l0,0
			c0-1.496,1.213-2.709,2.709-2.709h20.953C300.34,314.12,301.553,315.333,301.553,316.829L301.553,316.829z"/>
		<circle fill="#5D5D5D" cx="288.367" cy="327.081" r="4.5"/>
	</g>
	<path clip-path="url(#SVGID_2_)" fill="#EF947F" d="M328.145,372.21c1.074,1.036,0.299,3.553-1.99,5.138
		c-10.487,7.284-24.49,7.284-34.977,0c-2.289-1.585-3.065-4.101-1.99-5.138l0,0c1.076-1.047,3.256-0.568,5.078,0.683
		c8.636,5.997,20.166,5.997,28.802,0C324.889,371.642,327.069,371.163,328.145,372.21L328.145,372.21z"/>
	<g clip-path="url(#SVGID_2_)">
		<circle fill="#EF947F" cx="312.5" cy="359.465" r="1.875"/>
		<circle fill="#EF947F" cx="304.833" cy="359.465" r="1.875"/>
	</g>
	<circle clip-path="url(#SVGID_2_)" fill="none" cx="306" cy="303.797" r="221"/>
</g>
<path fill="#EF937E" d="M308.5,395.427c13.349,0,24.17-10.21,24.17-22.804H284.33C284.33,385.217,295.151,395.427,308.5,395.427z"/>
<path fill="#F9F7F8" d="M308.5,392.302c13.349,0,24.17-10.21,24.17-22.804H284.33C284.33,382.092,295.151,392.302,308.5,392.302z"/>
</svg>
