<?xml version="1.0" encoding="utf-8"?>
<!-- Generator: Adobe Illustrator 16.0.0, SVG Export Plug-In . SVG Version: 6.00 Build 0)  -->
<!DOCTYPE svg PUBLIC "-//W3C//DTD SVG 1.1//EN" "http://www.w3.org/Graphics/SVG/1.1/DTD/svg11.dtd">
<svg version="1.1" id="Layer_1" xmlns="http://www.w3.org/2000/svg" xmlns:xlink="http://www.w3.org/1999/xlink" x="0px" y="0px"
	 width="600px" height="600px" viewBox="0 0 600 600" enable-background="new 0 0 600 600" xml:space="preserve">
<circle fill="#C7D6E9" cx="304.961" cy="303.797" r="221"/>
<circle fill="none" cx="304.961" cy="303.797" r="221"/>
<path fill="#5D5D5D" d="M445.519,379.552c0,4.707-3.812,8.52-8.518,8.52H172.922c-4.705,0-8.519-3.813-8.519-8.52V207.247
	c0-4.704,3.813-8.519,8.519-8.519h264.079c4.706,0,8.518,3.814,8.518,8.519V379.552z"/>
<path fill="#FFFFFF" d="M475.334,382.897c0,9.652-5.891,17.477-13.16,17.477H147.75c-7.27,0-13.162-7.824-13.162-17.477H475.334z"/>
<rect x="276.928" y="382.897" fill="#B1D2D7" width="56.067" height="6.574"/>
<rect x="176.576" y="212.333" fill="#F9F7F8" width="256.772" height="161.775"/>
<circle fill="#FFFFFF" cx="306" cy="206.5" r="2.485"/>
<g>
	<rect x="190.906" y="225.367" opacity="0.5" fill="#C7D6E9" width="228.112" height="8.992"/>
	<rect x="266.231" y="312.327" opacity="0.5" fill="#C7D6E9" width="141.871" height="5.775"/>
	<rect x="266.231" y="356.792" opacity="0.5" fill="#C7D6E9" width="141.871" height="5.779"/>
	<rect x="201.82" y="247.939" opacity="0.5" fill="#C7D6E9" width="141.871" height="5.775"/>
	<rect x="201.82" y="292.404" opacity="0.5" fill="#C7D6E9" width="141.871" height="5.779"/>
</g>
<rect x="266.231" y="333.79" fill="#CCCACD" width="96.292" height="5.779"/>
<rect x="203.008" y="311.122" fill="#CCCACD" width="51.118" height="51.115"/>
<rect x="247.398" y="269.402" fill="#CCCACD" width="96.293" height="5.779"/>
<rect x="356.983" y="247.501" fill="#CCCACD" width="51.118" height="51.115"/>
<g>
	<path fill-rule="evenodd" clip-rule="evenodd" fill="#F9F7F8" d="M380.014,276.969c1.266-1.881,2.507-3.724,3.748-5.566
		c1.385-2.059,2.771-4.117,4.153-6.178c0.485-0.723,1.165-1,2.007-0.844c0.737,0.136,1.367,0.787,1.408,1.576
		c0.021,0.426-0.08,0.938-0.313,1.287c-3.043,4.579-6.113,9.141-9.196,13.693c-0.684,1.009-1.976,1.125-2.845,0.274
		c-1.562-1.529-3.102-3.078-4.634-4.636c-0.783-0.796-0.777-1.929-0.029-2.666c0.734-0.724,1.876-0.71,2.671,0.062
		c0.869,0.845,1.716,1.712,2.573,2.567C379.695,276.676,379.842,276.807,380.014,276.969z"/>
</g>
<g>
	<path fill-rule="evenodd" clip-rule="evenodd" fill="#F9F7F8" d="M226.038,340.59c1.266-1.881,2.507-3.723,3.748-5.566
		c1.385-2.059,2.771-4.117,4.153-6.178c0.485-0.723,1.165-0.999,2.007-0.844c0.737,0.136,1.367,0.787,1.408,1.576
		c0.021,0.426-0.08,0.938-0.313,1.287c-3.043,4.579-6.113,9.141-9.196,13.693c-0.684,1.009-1.976,1.125-2.845,0.273
		c-1.562-1.529-3.102-3.078-4.634-4.635c-0.783-0.797-0.777-1.93-0.029-2.666c0.734-0.725,1.876-0.711,2.671,0.062
		c0.869,0.845,1.716,1.712,2.573,2.567C225.719,340.297,225.866,340.428,226.038,340.59z"/>
</g>
</svg>
