<?xml version="1.0" encoding="UTF-8" standalone="no"?>
<!-- Created with Inkscape (http://www.inkscape.org/) -->
<svg xmlns:rdf="http://www.w3.org/1999/02/22-rdf-syntax-ns#" xmlns="http://www.w3.org/2000/svg" height="217.19mm" width="191.99mm" version="1.1" xmlns:cc="http://creativecommons.org/ns#" xmlns:dc="http://purl.org/dc/elements/1.1/" viewBox="0 0 191.98804 217.18637">
 <metadata>
  <rdf:RDF>
   <cc:Work rdf:about="">
    <dc:format>image/svg+xml</dc:format>
    <dc:type rdf:resource="http://purl.org/dc/dcmitype/StillImage"/>
    <dc:title/>
   </cc:Work>
  </rdf:RDF>
 </metadata>
 <path d="m90.381 216.23c-3.907-1.65-84.279-48.32-85.894-49.88-4.6853-4.53-4.4845-1.94-4.4845-57.78 0-56.294-0.27002-52.708 4.3227-57.406 1.6211-1.658 80.857-47.849 85.928-50.092 2.3722-1.0493 6.4299-1.3756 9.4112-0.75663 2.9317 0.60861 85.299 47.988 87.986 50.611 4.6372 4.5276 4.3323 0.47208 4.3323 57.631 0 57.527 0.32074 53.178-4.2547 57.692-2.1223 2.0939-84.315 49.718-87.126 50.482-2.8622 0.77832-7.7441 0.5359-10.22-0.5075zm1.2024-38.379c17.044-2.6688 28.965-21.476 24.485-38.628-2.2549-8.6323-3.7767-10.448-24.397-29.111-22.501-20.365-24.937-24.042-24.937-37.644 0-7.261-6.0468-5.7968-6.3413 1.5355-0.56245 14.004 2.2395 18.343 26.397 40.884 22.036 20.561 23.026 21.954 22.997 32.352-0.0873 30.698-45.823 31.946-48.495 1.3227-0.29271-3.3555-1.478-5.1303-3.4262-5.1303-7.2985 0-3.4133 17.169 5.9046 26.093 7.8214 7.4906 16.52 10.095 27.813 8.3266zm39.06-29.756c2.6296-2.6296 1.3995-13.475-2.41-21.248-2.4719-5.0434-4.4718-7.1845-22.823-24.434-21.631-20.33-22.346-21.29-22.937-30.767-1.965-31.557 44.988-34.625 48.388-3.161 0.42714 3.957 1.3534 5.2103 3.8505 5.2103 7.5225 0 2.029-19.392-7.7873-27.489-22.976-18.952-57.029 1.4032-51.016 30.495 2.0139 9.743 3.1725 11.143 27.099 32.753 20.262 18.3 21.302 19.861 22.219 33.354 0.41547 6.1092 2.5315 8.1746 5.4179 5.2882z" fill-opacity=".98851" stroke-width=".40079" fill="#2e4369"/>
</svg>
